<svg xmlns="http://www.w3.org/2000/svg" xmlns:xlink="http://www.w3.org/1999/xlink" xmlns:lucid="lucid" width="920" height="844.98"><g transform="translate(-480 1080)" lucid:page-tab-id="0_0"><path d="M0-1259.2h1870.4V64H0z" fill="#fff"/><path d="M1010-1060l130 110-130 110-130-110z" stroke="#000" stroke-width="2" fill="#fff"/><use xlink:href="#a" transform="matrix(1,0,0,1,885,-1055) translate(52.80499999999999 99.7125)"/><use xlink:href="#b" transform="matrix(1,0,0,1,885,-1055) translate(140.305 99.7125)"/><use xlink:href="#c" transform="matrix(1,0,0,1,885,-1055) translate(24.650679012345673 120.06805555555556)"/><path d="M740-780l100 70-100 70-100-70z" stroke="#000" stroke-width="2" fill="#fff"/><use xlink:href="#d" transform="matrix(1,0,0,1,645,-775) translate(61.10499999999999 55.025)"/><use xlink:href="#e" transform="matrix(1,0,0,1,645,-775) translate(24.55006172839506 75.38055555555556)"/><path d="M859.55-808.96h-112.5l-1 .08-.9.22-.87.36-.8.5-.72.6-.6.72-.5.8-.36.87-.22.9-.08.98v20.7h-2V-803l.1-1.2.3-1.23.47-1.16.65-1.06.82-.95.96-.83 1.07-.66 1.16-.47 1.22-.3 1.2-.1h112.6zm151.45-7.96l-.1 1.22-.3 1.22-.47 1.16-.65 1.07-.82.95-.96.82-1.07.65-1.16.5-1.22.28-1.2.1h-112.6v-2h112.5l1-.08.9-.22.87-.36.8-.5.72-.62.6-.7.5-.8.36-.88.22-.92.08-.98v-20.7h2z" stroke="#000" stroke-width=".05"/><path d="M1011-837.66h-2v-1.88l1 .85 1-.84z"/><path d="M1011.02-837.64H1009v-1.95l1.02.88 1.02-.87zm-1.02-1.02l-.98-.82v1.8h1.96v-1.8z" stroke="#000" stroke-width=".05"/><path d="M741-780.52l-1-.7-1 .7v-1.73h2z"/><path d="M741.02-780.47l-1.02-.72-1.02.73v-1.8H741zm-2-1.75v1.65l.98-.68.98.68v-1.65z" stroke="#000" stroke-width=".05"/><use xlink:href="#f" transform="matrix(1,0,0,1,859.55,-820.7553513820972) translate(0 14.4)"/><path d="M1280-782.54l100 71.27L1280-640l-100-71.27z" stroke="#000" stroke-width="2" fill="#fff"/><use xlink:href="#d" transform="matrix(1,0,0,1,1185,-777.5420609457774) translate(61.10499999999999 55.9625)"/><use xlink:href="#g" transform="matrix(1,0,0,1,1185,-777.5420609457774) translate(23.014876543209862 76.31805555555556)"/><path d="M1273.04-812.23l1.2.1 1.23.3 1.16.47 1.07.65.96.8.8.97.67 1.07.48 1.16.3 1.22.1 1.2v19.5h-2v-19.4l-.08-1-.22-.9-.36-.87-.5-.8-.6-.72-.7-.6-.82-.5-.87-.36-.9-.22-1-.08h-111.48v-2zm-261.96-5.06l.22.92.36.87.5.8.6.7.72.62.8.5.87.35.9.22 1 .07h111.48v2h-111.57l-1.2-.1-1.23-.3-1.16-.47-1.07-.65-.96-.82-.82-.96-.65-1.07-.48-1.16-.3-1.22-.1-1.2v-19.5h2v19.4z" stroke="#000" stroke-width=".05"/><path d="M1011-837.66h-2v-1.88l1 .85 1-.84z"/><path d="M1011.02-837.64H1009v-1.95l1.02.88 1.02-.87zm-1.02-1.02l-.98-.82v1.8h1.96v-1.8z" stroke="#000" stroke-width=".05"/><path d="M1281-783.06l-1-.7-1 .7v-1.74h2z"/><path d="M1281.03-783l-1.03-.74-1.03.73v-1.82h2.06zm-2-1.77v1.66l.97-.7.97.7v-1.67z" stroke="#000" stroke-width=".05"/><use xlink:href="#h" transform="matrix(1,0,0,1,1128.525,-822.0300483680908) translate(0 14.4)"/><path d="M500-580h220v140H500z" stroke="#000" stroke-width="2" fill="#fff"/><use xlink:href="#i" transform="matrix(1,0,0,1,512,-568) translate(67.7 50.65)"/><use xlink:href="#j" transform="matrix(1,0,0,1,512,-568) translate(6.507407407407399 72.78333333333333)"/><path d="M500-395.02h220v140H500z" stroke="#000" stroke-width="2" fill="#fff"/><use xlink:href="#k" transform="matrix(1,0,0,1,512,-383.01662793107585) translate(73.85 50.65)"/><use xlink:href="#l" transform="matrix(1,0,0,1,512,-383.01662793107585) translate(3.8888888888888715 72.78333333333333)"/><path d="M760-580h220v140H760z" stroke="#000" stroke-width="2" fill="#fff"/><use xlink:href="#m" transform="matrix(1,0,0,1,772,-568) translate(66.94074074074074 51.18333333333334)"/><use xlink:href="#n" transform="matrix(1,0,0,1,772,-568) translate(16.903703703703698 73.58333333333334)"/><path d="M760-395.02h220v140H760z" stroke="#000" stroke-width="2" fill="#fff"/><use xlink:href="#o" transform="matrix(1,0,0,1,772,-383.01662793107585) translate(62.792592592592584 51.18333333333334)"/><use xlink:href="#p" transform="matrix(1,0,0,1,772,-383.01662793107585) translate(20.81851851851853 73.58333333333334)"/><path d="M1040-580h220v140h-220z" stroke="#000" stroke-width="2" fill="#fff"/><use xlink:href="#q" transform="matrix(1,0,0,1,1052,-568) translate(30.696296296296282 39.333333333333336)"/><use xlink:href="#r" transform="matrix(1,0,0,1,1052,-568) translate(113.91851851851851 39.333333333333336)"/><use xlink:href="#s" transform="matrix(1,0,0,1,1052,-568) translate(66.05925925925925 61.733333333333334)"/><use xlink:href="#t" transform="matrix(1,0,0,1,1052,-568) translate(-0.362962962962996 84.13333333333334)"/><path d="M659.55-608.9h-42.5l-1 .1-.9.2-.87.37-.8.5-.72.6-.6.72-.5.8-.36.86-.22.9-.08 1V-582h-2v-20.93l.1-1.2.3-1.23.47-1.16.65-1.07.82-.95.96-.8 1.07-.67 1.16-.48 1.22-.3 1.2-.1h42.6zm81.45-7.95l-.1 1.2-.3 1.23-.47 1.16-.65 1.07-.82.97-.96.82-1.07.64-1.16.48-1.22.3-1.2.1h-42.6v-2h42.5l1-.1.9-.2.87-.37.8-.5.72-.6.6-.72.5-.8.36-.87.22-.9.08-1v-20.84h2z" stroke="#000" stroke-width=".05"/><path d="M741-637.75h-2v-1.73l1 .7 1-.7z"/><path d="M741.02-637.73H739v-1.8l1.02.72 1.02-.73zm-2-.05H741v-1.65l-.98.68-.98-.68z" stroke="#000" stroke-width=".05"/><path d="M611-581h-2v-1.03h2z"/><path d="M611.02-580.98H609v-1.07H611zm-2-1.02v.98H611v-.98z" stroke="#000" stroke-width=".05"/><use xlink:href="#f" transform="matrix(1,0,0,1,659.55,-620.6896722192132) translate(0 14.4)"/><path d="M863.04-610.9l1.2.1 1.23.3 1.16.48 1.07.66.96.8.82.97.65 1.08.48 1.16.3 1.22.1 1.2V-582h-2v-20.85l-.08-.98-.22-.9-.36-.88-.5-.8-.6-.73-.72-.6-.8-.5-.87-.36-.9-.2-1-.1h-41.48v-2zm-121.96-5.05l.22.9.36.88.5.8.6.72.72.6.8.5.87.36.9.23 1 .08h41.48v2h-41.57l-1.2-.1-1.23-.28-1.16-.48-1.07-.65-.96-.83-.82-.96-.65-1.06-.48-1.16-.3-1.22-.1-1.2v-20.94h2v20.85z" stroke="#000" stroke-width=".05"/><path d="M741-637.75h-2v-1.73l1 .7 1-.7z"/><path d="M741.02-637.73H739v-1.8l1.02.72 1.02-.73zm-2-.05H741v-1.65l-.98.68-.98-.68z" stroke="#000" stroke-width=".05"/><path d="M871-581h-2v-1.03h2z"/><path d="M871.02-580.98H869v-1.07H871zm-2-1.02v.98H871v-.98z" stroke="#000" stroke-width=".05"/><use xlink:href="#h" transform="matrix(1,0,0,1,788.525,-620.6896722192132) translate(0 14.4)"/><path d="M610-438v40.98" stroke="#000" stroke-width="2" fill="none"/><path d="M611-437.97h-2V-439h2zM611-396.02h-2v-1.02h2z" stroke="#000" stroke-width=".05"/><path d="M870-438v40.98" stroke="#000" stroke-width="2" fill="none"/><path d="M871-437.97h-2V-439h2zM871-396.02h-2v-1.02h2zM1199.55-608.9h-42.5l-1 .1-.9.2-.87.37-.8.5-.72.6-.6.72-.5.8-.36.86-.22.92-.08.97V-582h-2v-20.92l.1-1.22.3-1.22.47-1.16.66-1.07.8-.94.97-.82 1.07-.66 1.16-.48 1.22-.3 1.2-.1h42.6zm81.45-7.95l-.1 1.22-.3 1.22-.47 1.15-.66 1.07-.8.95-.97.82-1.07.64-1.16.5-1.22.28-1.2.1h-42.6v-2h42.5l1-.08.9-.22.87-.36.8-.5.72-.6.6-.72.5-.8.36-.87.22-.92.08-.97v-20.85h2z" stroke="#000" stroke-width=".05"/><path d="M1281-637.75h-2v-1.74l1 .73 1-.72z"/><path d="M1281.03-637.72h-2.06v-1.8l1.03.72 1.03-.73zm-1.03-1.02l-.97-.7v1.67h1.94v-1.67z" stroke="#000" stroke-width=".05"/><path d="M1151-581h-2v-1.03h2z"/><path d="M1151.03-580.98h-2.06v-1.07h2.06zm-2-1.02v.98h1.94v-.98z" stroke="#000" stroke-width=".05"/><g><use xlink:href="#f" transform="matrix(1,0,0,1,1199.55,-620.686005676095) translate(0 14.4)"/></g><defs><path d="M137 0h-34L2-248h35l83 218 83-218h36" id="u"/><path d="M141-36C126-15 110 5 73 4 37 3 15-17 15-53c-1-64 63-63 125-63 3-35-9-54-41-54-24 1-41 7-42 31l-33-3c5-37 33-52 76-52 45 0 72 20 72 64v82c-1 20 7 32 28 27v20c-31 9-61-2-59-35zM48-53c0 20 12 33 32 33 41-3 63-29 60-74-43 2-92-5-92 41" id="v"/><path d="M114-163C36-179 61-72 57 0H25l-1-190h30c1 12-1 29 2 39 6-27 23-49 58-41v29" id="w"/><path d="M24-231v-30h32v30H24zM24 0v-190h32V0H24" id="x"/><path d="M141-36C126-15 110 5 73 4 37 3 15-17 15-53c-1-64 63-63 125-63 3-35-9-54-41-54-24 1-41 7-42 31l-33-3c5-37 33-52 76-52 45 0 72 20 72 64v82c-1 20 7 32 28 27v20c-31 9-61-2-59-35zM48-53c0 20 12 33 32 33 41-3 63-29 60-74-43 2-92-5-92 41zm67-209c12 18 30 30 39 51-31 2-38-20-57-30-20 10-27 32-59 30 9-22 29-33 41-51h36" id="y"/><path d="M117-194c89-4 53 116 60 194h-32v-121c0-31-8-49-39-48C34-167 62-67 57 0H25l-1-190h30c1 10-1 24 2 32 11-22 29-35 61-36" id="z"/><path d="M96-169c-40 0-48 33-48 73s9 75 48 75c24 0 41-14 43-38l32 2c-6 37-31 61-74 61-59 0-76-41-82-99-10-93 101-131 147-64 4 7 5 14 7 22l-32 3c-4-21-16-35-41-35" id="A"/><path d="M135-143c-3-34-86-38-87 0 15 53 115 12 119 90S17 21 10-45l28-5c4 36 97 45 98 0-10-56-113-15-118-90-4-57 82-63 122-42 12 7 21 19 24 35" id="B"/><g id="a"><use transform="matrix(0.05,0,0,0.05,0,0)" xlink:href="#u"/><use transform="matrix(0.05,0,0,0.05,10.65,0)" xlink:href="#v"/><use transform="matrix(0.05,0,0,0.05,20.65,0)" xlink:href="#w"/><use transform="matrix(0.05,0,0,0.05,26.599999999999994,0)" xlink:href="#x"/><use transform="matrix(0.05,0,0,0.05,30.549999999999997,0)" xlink:href="#y"/><use transform="matrix(0.05,0,0,0.05,40.55,0)" xlink:href="#z"/><use transform="matrix(0.05,0,0,0.05,50.55,0)" xlink:href="#A"/><use transform="matrix(0.05,0,0,0.05,59.54999999999999,0)" xlink:href="#x"/><use transform="matrix(0.05,0,0,0.05,63.5,0)" xlink:href="#v"/><use transform="matrix(0.05,0,0,0.05,73.5,0)" xlink:href="#B"/></g><path d="M177-190C167-65 218 103 67 71c-23-6-38-20-44-43l32-5c15 47 100 32 89-28v-30C133-14 115 1 83 1 29 1 15-40 15-95c0-56 16-97 71-98 29-1 48 16 59 35 1-10 0-23 2-32h30zM94-22c36 0 50-32 50-73 0-42-14-75-50-75-39 0-46 34-46 75s6 73 46 73" id="C"/><path d="M84 4C-5 8 30-112 23-190h32v120c0 31 7 50 39 49 72-2 45-101 50-169h31l1 190h-30c-1-10 1-25-2-33-11 22-28 36-60 37" id="D"/><path d="M103-251c84 0 111 97 45 133-19 10-37 24-39 52H78c0-63 77-55 77-114 0-30-21-42-52-43-32 0-53 17-56 46l-32-2c7-45 34-72 88-72zM77 0v-35h34V0H77" id="E"/><g id="b"><use transform="matrix(0.05,0,0,0.05,0,0)" xlink:href="#x"/><use transform="matrix(0.05,0,0,0.05,3.95,0)" xlink:href="#C"/><use transform="matrix(0.05,0,0,0.05,13.949999999999998,0)" xlink:href="#D"/><use transform="matrix(0.05,0,0,0.05,23.95,0)" xlink:href="#v"/><use transform="matrix(0.05,0,0,0.05,33.95,0)" xlink:href="#x"/><use transform="matrix(0.05,0,0,0.05,37.900000000000006,0)" xlink:href="#B"/><use transform="matrix(0.05,0,0,0.05,46.900000000000006,0)" xlink:href="#E"/></g><path d="M115-194c55 1 70 41 70 98S169 2 115 4C84 4 66-9 55-30l1 105H24l-1-265h31l2 30c10-21 28-34 59-34zm-8 174c40 0 45-34 45-75s-6-73-45-74c-42 0-51 32-51 76 0 43 10 73 51 73" id="F"/><path d="M100-194c62-1 85 37 85 99 1 63-27 99-86 99S16-35 15-95c0-66 28-99 85-99zM99-20c44 1 53-31 53-75 0-43-8-75-51-75s-53 32-53 75 10 74 51 75" id="G"/><path d="M33 0v-38h34V0H33" id="H"/><path d="M106-169C34-169 62-67 57 0H25v-261h32l-1 103c12-21 28-36 61-36 89 0 53 116 60 194h-32v-121c2-32-8-49-39-48" id="I"/><path d="M210-169c-67 3-38 105-44 169h-31v-121c0-29-5-50-35-48C34-165 62-65 56 0H25l-1-190h30c1 10-1 24 2 32 10-44 99-50 107 0 11-21 27-35 58-36 85-2 47 119 55 194h-31v-121c0-29-5-49-35-48" id="J"/><path d="M100-194c63 0 86 42 84 106H49c0 40 14 67 53 68 26 1 43-12 49-29l28 8c-11 28-37 45-77 45C44 4 14-33 15-96c1-61 26-98 85-98zm52 81c6-60-76-77-97-28-3 7-6 17-6 28h103" id="K"/><path d="M85-194c31 0 48 13 60 33l-1-100h32l1 261h-30c-2-10 0-23-3-31C134-8 116 4 85 4 32 4 16-35 15-94c0-66 23-100 70-100zm9 24c-40 0-46 34-46 75 0 40 6 74 45 74 42 0 51-32 51-76 0-42-9-74-50-73" id="L"/><path d="M59-47c-2 24 18 29 38 22v24C64 9 27 4 27-40v-127H5v-23h24l9-43h21v43h35v23H59v120" id="M"/><path d="M179-190L93 31C79 59 56 82 12 73V49c39 6 53-20 64-50L1-190h34L92-34l54-156h33" id="N"/><path d="M87 75C49 33 22-17 22-94c0-76 28-126 65-167h31c-38 41-64 92-64 168S80 34 118 75H87" id="O"/><path d="M33-261c38 41 65 92 65 168S71 34 33 75H2C39 34 66-17 66-93S39-220 2-261h31" id="P"/><g id="c"><use transform="matrix(0.043827160493827164,0,0,0.043827160493827164,0,0)" xlink:href="#F"/><use transform="matrix(0.043827160493827164,0,0,0.043827160493827164,8.765432098765432,0)" xlink:href="#x"/><use transform="matrix(0.043827160493827164,0,0,0.043827160493827164,12.227777777777778,0)" xlink:href="#z"/><use transform="matrix(0.043827160493827164,0,0,0.043827160493827164,20.99320987654321,0)" xlink:href="#C"/><use transform="matrix(0.043827160493827164,0,0,0.043827160493827164,29.758641975308645,0)" xlink:href="#G"/><use transform="matrix(0.043827160493827164,0,0,0.043827160493827164,38.52407407407407,0)" xlink:href="#D"/><use transform="matrix(0.043827160493827164,0,0,0.043827160493827164,47.2895061728395,0)" xlink:href="#x"/><use transform="matrix(0.043827160493827164,0,0,0.043827160493827164,50.751851851851846,0)" xlink:href="#z"/><use transform="matrix(0.043827160493827164,0,0,0.043827160493827164,59.517283950617276,0)" xlink:href="#H"/><use transform="matrix(0.04567901234567902,0,0,0.04567901234567902,63.899999999999984,0)" xlink:href="#I"/><use transform="matrix(0.04567901234567902,0,0,0.04567901234567902,73.0358024691358,0)" xlink:href="#G"/><use transform="matrix(0.04567901234567902,0,0,0.04567901234567902,82.1716049382716,0)" xlink:href="#J"/><use transform="matrix(0.04567901234567902,0,0,0.04567901234567902,95.82962962962964,0)" xlink:href="#G"/><use transform="matrix(0.04567901234567902,0,0,0.04567901234567902,104.96543209876543,0)" xlink:href="#B"/><use transform="matrix(0.04567901234567902,0,0,0.04567901234567902,113.18765432098766,0)" xlink:href="#A"/><use transform="matrix(0.04567901234567902,0,0,0.04567901234567902,121.40987654320988,0)" xlink:href="#K"/><use transform="matrix(0.04567901234567902,0,0,0.04567901234567902,130.5456790123457,0)" xlink:href="#L"/><use transform="matrix(0.04567901234567902,0,0,0.04567901234567902,139.68148148148148,0)" xlink:href="#v"/><use transform="matrix(0.04567901234567902,0,0,0.04567901234567902,148.81728395061728,0)" xlink:href="#B"/><use transform="matrix(0.04567901234567902,0,0,0.04567901234567902,157.0395061728395,0)" xlink:href="#M"/><use transform="matrix(0.04567901234567902,0,0,0.04567901234567902,161.6074074074074,0)" xlink:href="#x"/><use transform="matrix(0.04567901234567902,0,0,0.04567901234567902,165.21604938271605,0)" xlink:href="#A"/><use transform="matrix(0.04567901234567902,0,0,0.04567901234567902,173.43827160493828,0)" xlink:href="#x"/><use transform="matrix(0.04567901234567902,0,0,0.04567901234567902,177.04691358024692,0)" xlink:href="#M"/><use transform="matrix(0.04567901234567902,0,0,0.04567901234567902,181.61481481481482,0)" xlink:href="#N"/><use transform="matrix(0.04567901234567902,0,0,0.04567901234567902,189.83703703703705,0)" xlink:href="#O"/><use transform="matrix(0.04567901234567902,0,0,0.04567901234567902,195.27283950617286,0)" xlink:href="#P"/></g><path d="M190 0L58-211 59 0H30v-248h39L202-35l-2-213h31V0h-41" id="Q"/><path d="M24 0v-261h32V0H24" id="R"/><g id="d"><use transform="matrix(0.05,0,0,0.05,0,0)" xlink:href="#Q"/><use transform="matrix(0.05,0,0,0.05,12.950000000000001,0)" xlink:href="#G"/><use transform="matrix(0.05,0,0,0.05,22.950000000000003,0)" xlink:href="#w"/><use transform="matrix(0.05,0,0,0.05,28.900000000000002,0)" xlink:href="#J"/><use transform="matrix(0.05,0,0,0.05,43.85,0)" xlink:href="#v"/><use transform="matrix(0.05,0,0,0.05,53.85,0)" xlink:href="#R"/><use transform="matrix(0.05,0,0,0.05,57.800000000000004,0)" xlink:href="#E"/></g><g id="e"><use transform="matrix(0.043827160493827164,0,0,0.043827160493827164,0,0)" xlink:href="#F"/><use transform="matrix(0.043827160493827164,0,0,0.043827160493827164,8.765432098765432,0)" xlink:href="#x"/><use transform="matrix(0.043827160493827164,0,0,0.043827160493827164,12.227777777777778,0)" xlink:href="#z"/><use transform="matrix(0.043827160493827164,0,0,0.043827160493827164,20.99320987654321,0)" xlink:href="#C"/><use transform="matrix(0.043827160493827164,0,0,0.043827160493827164,29.758641975308645,0)" xlink:href="#G"/><use transform="matrix(0.043827160493827164,0,0,0.043827160493827164,38.52407407407407,0)" xlink:href="#D"/><use transform="matrix(0.043827160493827164,0,0,0.043827160493827164,47.2895061728395,0)" xlink:href="#x"/><use transform="matrix(0.043827160493827164,0,0,0.043827160493827164,50.751851851851846,0)" xlink:href="#z"/><use transform="matrix(0.043827160493827164,0,0,0.043827160493827164,59.517283950617276,0)" xlink:href="#H"/><use transform="matrix(0.043827160493827164,0,0,0.043827160493827164,63.89999999999999,0)" xlink:href="#z"/><use transform="matrix(0.04567901234567902,0,0,0.04567901234567902,72.66543209876542,0)" xlink:href="#G"/><use transform="matrix(0.04567901234567902,0,0,0.04567901234567902,81.80123456790122,0)" xlink:href="#w"/><use transform="matrix(0.04567901234567902,0,0,0.04567901234567902,87.23703703703703,0)" xlink:href="#J"/><use transform="matrix(0.04567901234567902,0,0,0.04567901234567902,100.89506172839505,0)" xlink:href="#v"/><use transform="matrix(0.04567901234567902,0,0,0.04567901234567902,110.03086419753086,0)" xlink:href="#R"/><use transform="matrix(0.04567901234567902,0,0,0.04567901234567902,113.6395061728395,0)" xlink:href="#x"/><use transform="matrix(0.04567901234567902,0,0,0.04567901234567902,117.24814814814815,0)" xlink:href="#M"/><use transform="matrix(0.04567901234567902,0,0,0.04567901234567902,121.81604938271605,0)" xlink:href="#N"/><use transform="matrix(0.04567901234567902,0,0,0.04567901234567902,130.03827160493827,0)" xlink:href="#O"/><use transform="matrix(0.04567901234567902,0,0,0.04567901234567902,135.47407407407408,0)" xlink:href="#P"/></g><path d="M185-189c-5-48-123-54-124 2 14 75 158 14 163 119 3 78-121 87-175 55-17-10-28-26-33-46l33-7c5 56 141 63 141-1 0-78-155-14-162-118-5-82 145-84 179-34 5 7 8 16 11 25" id="S"/><g id="f"><use transform="matrix(0.05,0,0,0.05,0,0)" xlink:href="#S"/><use transform="matrix(0.05,0,0,0.05,12,0)" xlink:href="#x"/><use transform="matrix(0.05,0,0,0.05,15.949999999999998,0)" xlink:href="#J"/></g><g id="g"><use transform="matrix(0.04567901234567902,0,0,0.04567901234567902,0,0)" xlink:href="#F"/><use transform="matrix(0.04567901234567902,0,0,0.04567901234567902,9.135802469135804,0)" xlink:href="#x"/><use transform="matrix(0.04567901234567902,0,0,0.04567901234567902,12.744444444444445,0)" xlink:href="#z"/><use transform="matrix(0.04567901234567902,0,0,0.04567901234567902,21.88024691358025,0)" xlink:href="#C"/><use transform="matrix(0.04567901234567902,0,0,0.04567901234567902,31.016049382716055,0)" xlink:href="#G"/><use transform="matrix(0.04567901234567902,0,0,0.04567901234567902,40.15185185185186,0)" xlink:href="#D"/><use transform="matrix(0.04567901234567902,0,0,0.04567901234567902,49.28765432098766,0)" xlink:href="#x"/><use transform="matrix(0.04567901234567902,0,0,0.04567901234567902,52.896296296296306,0)" xlink:href="#z"/><use transform="matrix(0.04567901234567902,0,0,0.04567901234567902,62.03209876543211,0)" xlink:href="#H"/><use transform="matrix(0.04567901234567902,0,0,0.04567901234567902,66.60000000000001,0)" xlink:href="#z"/><use transform="matrix(0.04567901234567902,0,0,0.04567901234567902,75.73580246913582,0)" xlink:href="#G"/><use transform="matrix(0.04567901234567902,0,0,0.04567901234567902,84.87160493827162,0)" xlink:href="#w"/><use transform="matrix(0.04567901234567902,0,0,0.04567901234567902,90.30740740740742,0)" xlink:href="#J"/><use transform="matrix(0.04567901234567902,0,0,0.04567901234567902,103.96543209876545,0)" xlink:href="#v"/><use transform="matrix(0.04567901234567902,0,0,0.04567901234567902,113.10123456790124,0)" xlink:href="#R"/><use transform="matrix(0.04567901234567902,0,0,0.04567901234567902,116.70987654320989,0)" xlink:href="#x"/><use transform="matrix(0.04567901234567902,0,0,0.04567901234567902,120.31851851851856,0)" xlink:href="#M"/><use transform="matrix(0.04567901234567902,0,0,0.04567901234567902,124.88641975308643,0)" xlink:href="#N"/><use transform="matrix(0.04567901234567902,0,0,0.04567901234567902,133.10864197530867,0)" xlink:href="#O"/><use transform="matrix(0.04567901234567902,0,0,0.04567901234567902,138.54444444444448,0)" xlink:href="#P"/></g><path d="M141-36C126-15 110 5 73 4 37 3 15-17 15-53c-1-64 63-63 125-63 3-35-9-54-41-54-24 1-41 7-42 31l-33-3c5-37 33-52 76-52 45 0 72 20 72 64v82c-1 20 7 32 28 27v20c-31 9-61-2-59-35zM48-53c0 20 12 33 32 33 41-3 63-29 60-74-43 2-92-5-92 41zm117-205c-3 23-9 48-36 47-26-1-65-44-74 0H39c4-23 8-48 36-47s64 44 74 0h16" id="T"/><g id="h"><use transform="matrix(0.05,0,0,0.05,0,0)" xlink:href="#Q"/><use transform="matrix(0.05,0,0,0.05,12.950000000000001,0)" xlink:href="#T"/><use transform="matrix(0.05,0,0,0.05,22.950000000000003,0)" xlink:href="#G"/></g><path d="M205 0l-28-72H64L36 0H1l101-248h38L239 0h-34zm-38-99l-47-123c-12 45-31 82-46 123h93" id="U"/><path d="M140-251c81 0 123 46 123 126C263-46 219 4 140 4 59 4 17-45 17-125s42-126 123-126zm0 227c63 0 89-41 89-101s-29-99-89-99c-61 0-89 39-89 99S79-25 140-24" id="V"/><g id="i"><use transform="matrix(0.05,0,0,0.05,0,0)" xlink:href="#U"/><use transform="matrix(0.05,0,0,0.05,12,0)" xlink:href="#Q"/><use transform="matrix(0.05,0,0,0.05,24.950000000000003,0)" xlink:href="#V"/><use transform="matrix(0.05,0,0,0.05,38.95,0)" xlink:href="#u"/><use transform="matrix(0.05,0,0,0.05,49.6,0)" xlink:href="#U"/></g><path d="M101-234c-31-9-42 10-38 44h38v23H63V0H32v-167H5v-23h27c-7-52 17-82 69-68v24" id="W"/><path d="M-5 72V49h209v23H-5" id="X"/><path d="M206 0h-36l-40-164L89 0H53L-1-190h32L70-26l43-164h34l41 164 42-164h31" id="Y"/><g id="j"><use transform="matrix(0.05185185185185186,0,0,0.05185185185185186,0,0)" xlink:href="#B"/><use transform="matrix(0.05185185185185186,0,0,0.05185185185185186,9.333333333333334,0)" xlink:href="#A"/><use transform="matrix(0.05185185185185186,0,0,0.05185185185185186,18.666666666666668,0)" xlink:href="#x"/><use transform="matrix(0.05185185185185186,0,0,0.05185185185185186,22.762962962962966,0)" xlink:href="#F"/><use transform="matrix(0.05185185185185186,0,0,0.05185185185185186,33.13333333333334,0)" xlink:href="#N"/><use transform="matrix(0.05185185185185186,0,0,0.05185185185185186,41.06666666666668,0)" xlink:href="#H"/><use transform="matrix(0.05185185185185186,0,0,0.05185185185185186,46.25185185185186,0)" xlink:href="#B"/><use transform="matrix(0.05185185185185186,0,0,0.05185185185185186,55.58518518518519,0)" xlink:href="#M"/><use transform="matrix(0.05185185185185186,0,0,0.05185185185185186,60.77037037037038,0)" xlink:href="#v"/><use transform="matrix(0.05185185185185186,0,0,0.05185185185185186,71.14074074074075,0)" xlink:href="#M"/><use transform="matrix(0.05185185185185186,0,0,0.05185185185185186,76.32592592592594,0)" xlink:href="#B"/><use transform="matrix(0.05185185185185186,0,0,0.05185185185185186,85.65925925925927,0)" xlink:href="#H"/><use transform="matrix(0.05185185185185186,0,0,0.05185185185185186,90.84444444444446,0)" xlink:href="#W"/><use transform="matrix(0.05185185185185186,0,0,0.05185185185185186,96.02962962962965,0)" xlink:href="#X"/><use transform="matrix(0.05185185185185186,0,0,0.05185185185185186,106.4,0)" xlink:href="#G"/><use transform="matrix(0.05185185185185186,0,0,0.05185185185185186,116.77037037037039,0)" xlink:href="#z"/><use transform="matrix(0.05185185185185186,0,0,0.05185185185185186,127.14074074074075,0)" xlink:href="#K"/><use transform="matrix(0.05185185185185186,0,0,0.05185185185185186,137.51111111111112,0)" xlink:href="#Y"/><use transform="matrix(0.05185185185185186,0,0,0.05185185185185186,150.94074074074075,0)" xlink:href="#v"/><use transform="matrix(0.05185185185185186,0,0,0.05185185185185186,161.31111111111113,0)" xlink:href="#N"/><use transform="matrix(0.05185185185185186,0,0,0.05185185185185186,170.64444444444447,0)" xlink:href="#O"/><use transform="matrix(0.05185185185185186,0,0,0.05185185185185186,176.81481481481484,0)" xlink:href="#P"/></g><path d="M127-220V0H93v-220H8v-28h204v28h-85" id="Z"/><path d="M143 0L79-87 56-68V0H24v-261h32v163l83-92h37l-77 82L181 0h-38" id="aa"/><g id="k"><use transform="matrix(0.05,0,0,0.05,0,0)" xlink:href="#Z"/><use transform="matrix(0.05,0,0,0.05,10.3,0)" xlink:href="#D"/><use transform="matrix(0.05,0,0,0.05,20.3,0)" xlink:href="#aa"/><use transform="matrix(0.05,0,0,0.05,29.3,0)" xlink:href="#K"/><use transform="matrix(0.05,0,0,0.05,39.3,0)" xlink:href="#N"/></g><g id="l"><use transform="matrix(0.05185185185185186,0,0,0.05185185185185186,0,0)" xlink:href="#B"/><use transform="matrix(0.05185185185185186,0,0,0.05185185185185186,9.333333333333334,0)" xlink:href="#A"/><use transform="matrix(0.05185185185185186,0,0,0.05185185185185186,18.666666666666668,0)" xlink:href="#x"/><use transform="matrix(0.05185185185185186,0,0,0.05185185185185186,22.762962962962966,0)" xlink:href="#F"/><use transform="matrix(0.05185185185185186,0,0,0.05185185185185186,33.13333333333334,0)" xlink:href="#N"/><use transform="matrix(0.05185185185185186,0,0,0.05185185185185186,41.06666666666668,0)" xlink:href="#H"/><use transform="matrix(0.05185185185185186,0,0,0.05185185185185186,46.25185185185186,0)" xlink:href="#B"/><use transform="matrix(0.05185185185185186,0,0,0.05185185185185186,55.58518518518519,0)" xlink:href="#M"/><use transform="matrix(0.05185185185185186,0,0,0.05185185185185186,60.77037037037038,0)" xlink:href="#v"/><use transform="matrix(0.05185185185185186,0,0,0.05185185185185186,71.14074074074075,0)" xlink:href="#M"/><use transform="matrix(0.05185185185185186,0,0,0.05185185185185186,76.32592592592594,0)" xlink:href="#B"/><use transform="matrix(0.05185185185185186,0,0,0.05185185185185186,85.65925925925927,0)" xlink:href="#H"/><use transform="matrix(0.05185185185185186,0,0,0.05185185185185186,90.84444444444446,0)" xlink:href="#M"/><use transform="matrix(0.05185185185185186,0,0,0.05185185185185186,96.02962962962965,0)" xlink:href="#D"/><use transform="matrix(0.05185185185185186,0,0,0.05185185185185186,106.4,0)" xlink:href="#aa"/><use transform="matrix(0.05185185185185186,0,0,0.05185185185185186,115.73333333333335,0)" xlink:href="#K"/><use transform="matrix(0.05185185185185186,0,0,0.05185185185185186,126.10370370370372,0)" xlink:href="#N"/><use transform="matrix(0.05185185185185186,0,0,0.05185185185185186,135.43703703703704,0)" xlink:href="#X"/><use transform="matrix(0.05185185185185186,0,0,0.05185185185185186,145.80740740740742,0)" xlink:href="#I"/><use transform="matrix(0.05185185185185186,0,0,0.05185185185185186,156.1777777777778,0)" xlink:href="#B"/><use transform="matrix(0.05185185185185186,0,0,0.05185185185185186,165.51111111111115,0)" xlink:href="#L"/><use transform="matrix(0.05185185185185186,0,0,0.05185185185185186,175.88148148148153,0)" xlink:href="#O"/><use transform="matrix(0.05185185185185186,0,0,0.05185185185185186,182.0518518518519,0)" xlink:href="#P"/></g><path d="M194 0L95-120 63-95V0H30v-248h33v124l119-124h40L117-140 236 0h-42" id="ab"/><g id="m"><use transform="matrix(0.05185185185185186,0,0,0.05185185185185186,0,0)" xlink:href="#ab"/><use transform="matrix(0.05185185185185186,0,0,0.05185185185185186,12.444444444444446,0)" xlink:href="#w"/><use transform="matrix(0.05185185185185186,0,0,0.05185185185185186,18.614814814814817,0)" xlink:href="#D"/><use transform="matrix(0.05185185185185186,0,0,0.05185185185185186,28.985185185185188,0)" xlink:href="#B"/><use transform="matrix(0.05185185185185186,0,0,0.05185185185185186,38.31851851851852,0)" xlink:href="#aa"/><use transform="matrix(0.05185185185185186,0,0,0.05185185185185186,47.65185185185186,0)" xlink:href="#v"/><use transform="matrix(0.05185185185185186,0,0,0.05185185185185186,58.022222222222226,0)" xlink:href="#R"/></g><g id="n"><use transform="matrix(0.05185185185185186,0,0,0.05185185185185186,0,0)" xlink:href="#B"/><use transform="matrix(0.05185185185185186,0,0,0.05185185185185186,9.333333333333334,0)" xlink:href="#A"/><use transform="matrix(0.05185185185185186,0,0,0.05185185185185186,18.666666666666668,0)" xlink:href="#x"/><use transform="matrix(0.05185185185185186,0,0,0.05185185185185186,22.762962962962966,0)" xlink:href="#F"/><use transform="matrix(0.05185185185185186,0,0,0.05185185185185186,33.13333333333334,0)" xlink:href="#N"/><use transform="matrix(0.05185185185185186,0,0,0.05185185185185186,41.06666666666668,0)" xlink:href="#H"/><use transform="matrix(0.05185185185185186,0,0,0.05185185185185186,46.25185185185186,0)" xlink:href="#B"/><use transform="matrix(0.05185185185185186,0,0,0.05185185185185186,55.58518518518519,0)" xlink:href="#M"/><use transform="matrix(0.05185185185185186,0,0,0.05185185185185186,60.77037037037038,0)" xlink:href="#v"/><use transform="matrix(0.05185185185185186,0,0,0.05185185185185186,71.14074074074075,0)" xlink:href="#M"/><use transform="matrix(0.05185185185185186,0,0,0.05185185185185186,76.32592592592594,0)" xlink:href="#B"/><use transform="matrix(0.05185185185185186,0,0,0.05185185185185186,85.65925925925927,0)" xlink:href="#H"/><use transform="matrix(0.05185185185185186,0,0,0.05185185185185186,90.84444444444446,0)" xlink:href="#aa"/><use transform="matrix(0.05185185185185186,0,0,0.05185185185185186,100.17777777777779,0)" xlink:href="#w"/><use transform="matrix(0.05185185185185186,0,0,0.05185185185185186,106.34814814814816,0)" xlink:href="#D"/><use transform="matrix(0.05185185185185186,0,0,0.05185185185185186,116.71851851851854,0)" xlink:href="#B"/><use transform="matrix(0.05185185185185186,0,0,0.05185185185185186,126.05185185185186,0)" xlink:href="#aa"/><use transform="matrix(0.05185185185185186,0,0,0.05185185185185186,135.3851851851852,0)" xlink:href="#v"/><use transform="matrix(0.05185185185185186,0,0,0.05185185185185186,145.7555555555556,0)" xlink:href="#R"/><use transform="matrix(0.05185185185185186,0,0,0.05185185185185186,149.85185185185188,0)" xlink:href="#O"/><use transform="matrix(0.05185185185185186,0,0,0.05185185185185186,156.02222222222224,0)" xlink:href="#P"/></g><path d="M212-179c-10-28-35-45-73-45-59 0-87 40-87 99 0 60 29 101 89 101 43 0 62-24 78-52l27 14C228-24 195 4 139 4 59 4 22-46 18-125c-6-104 99-153 187-111 19 9 31 26 39 46" id="ac"/><path d="M108 0H70L1-190h34L89-25l56-165h34" id="ad"/><g id="o"><use transform="matrix(0.05185185185185186,0,0,0.05185185185185186,0,0)" xlink:href="#ac"/><use transform="matrix(0.05185185185185186,0,0,0.05185185185185186,13.42962962962963,0)" xlink:href="#G"/><use transform="matrix(0.05185185185185186,0,0,0.05185185185185186,23.800000000000004,0)" xlink:href="#z"/><use transform="matrix(0.05185185185185186,0,0,0.05185185185185186,34.17037037037038,0)" xlink:href="#G"/><use transform="matrix(0.05185185185185186,0,0,0.05185185185185186,44.54074074074075,0)" xlink:href="#ad"/><use transform="matrix(0.05185185185185186,0,0,0.05185185185185186,53.874074074074095,0)" xlink:href="#K"/><use transform="matrix(0.05185185185185186,0,0,0.05185185185185186,64.24444444444445,0)" xlink:href="#w"/></g><g id="p"><use transform="matrix(0.05185185185185186,0,0,0.05185185185185186,0,0)" xlink:href="#F"/><use transform="matrix(0.05185185185185186,0,0,0.05185185185185186,10.370370370370372,0)" xlink:href="#G"/><use transform="matrix(0.05185185185185186,0,0,0.05185185185185186,20.740740740740744,0)" xlink:href="#B"/><use transform="matrix(0.05185185185185186,0,0,0.05185185185185186,30.074074074074076,0)" xlink:href="#M"/><use transform="matrix(0.05185185185185186,0,0,0.05185185185185186,35.25925925925926,0)" xlink:href="#I"/><use transform="matrix(0.05185185185185186,0,0,0.05185185185185186,45.62962962962963,0)" xlink:href="#G"/><use transform="matrix(0.05185185185185186,0,0,0.05185185185185186,56.00000000000001,0)" xlink:href="#A"/><use transform="matrix(0.05185185185185186,0,0,0.05185185185185186,65.33333333333334,0)" xlink:href="#X"/><use transform="matrix(0.05185185185185186,0,0,0.05185185185185186,75.70370370370371,0)" xlink:href="#A"/><use transform="matrix(0.05185185185185186,0,0,0.05185185185185186,85.03703703703704,0)" xlink:href="#G"/><use transform="matrix(0.05185185185185186,0,0,0.05185185185185186,95.4074074074074,0)" xlink:href="#z"/><use transform="matrix(0.05185185185185186,0,0,0.05185185185185186,105.77777777777777,0)" xlink:href="#G"/><use transform="matrix(0.05185185185185186,0,0,0.05185185185185186,116.14814814814814,0)" xlink:href="#ad"/><use transform="matrix(0.05185185185185186,0,0,0.05185185185185186,125.48148148148147,0)" xlink:href="#K"/><use transform="matrix(0.05185185185185186,0,0,0.05185185185185186,135.85185185185185,0)" xlink:href="#w"/><use transform="matrix(0.05185185185185186,0,0,0.05185185185185186,142.0222222222222,0)" xlink:href="#O"/><use transform="matrix(0.05185185185185186,0,0,0.05185185185185186,148.19259259259258,0)" xlink:href="#P"/></g><path d="M16-82v-28h88v28H16" id="ae"/><path d="M266 0h-40l-56-210L115 0H75L2-248h35L96-30l15-64 43-154h32l59 218 59-218h35" id="af"/><g id="q"><use transform="matrix(0.05185185185185186,0,0,0.05185185185185186,0,0)" xlink:href="#V"/><use transform="matrix(0.05185185185185186,0,0,0.05185185185185186,14.51851851851852,0)" xlink:href="#z"/><use transform="matrix(0.05185185185185186,0,0,0.05185185185185186,24.888888888888893,0)" xlink:href="#K"/><use transform="matrix(0.05185185185185186,0,0,0.05185185185185186,35.25925925925927,0)" xlink:href="#ae"/><use transform="matrix(0.05185185185185186,0,0,0.05185185185185186,41.42962962962964,0)" xlink:href="#af"/><use transform="matrix(0.05185185185185186,0,0,0.05185185185185186,58.33333333333334,0)" xlink:href="#v"/><use transform="matrix(0.05185185185185186,0,0,0.05185185185185186,68.70370370370371,0)" xlink:href="#N"/></g><g id="r"><use transform="matrix(0.05185185185185186,0,0,0.05185185185185186,0,0)" xlink:href="#af"/><use transform="matrix(0.05185185185185186,0,0,0.05185185185185186,17.214814814814815,0)" xlink:href="#K"/><use transform="matrix(0.05185185185185186,0,0,0.05185185185185186,27.58518518518519,0)" xlink:href="#R"/><use transform="matrix(0.05185185185185186,0,0,0.05185185185185186,31.681481481481484,0)" xlink:href="#A"/><use transform="matrix(0.05185185185185186,0,0,0.05185185185185186,41.01481481481482,0)" xlink:href="#I"/></g><g id="s"><use transform="matrix(0.05185185185185186,0,0,0.05185185185185186,0,0)" xlink:href="#U"/><use transform="matrix(0.05185185185185186,0,0,0.05185185185185186,12.444444444444446,0)" xlink:href="#Q"/><use transform="matrix(0.05185185185185186,0,0,0.05185185185185186,25.874074074074077,0)" xlink:href="#V"/><use transform="matrix(0.05185185185185186,0,0,0.05185185185185186,40.3925925925926,0)" xlink:href="#u"/><use transform="matrix(0.05185185185185186,0,0,0.05185185185185186,51.437037037037044,0)" xlink:href="#U"/></g><g id="t"><use transform="matrix(0.05185185185185186,0,0,0.05185185185185186,0,0)" xlink:href="#F"/><use transform="matrix(0.05185185185185186,0,0,0.05185185185185186,10.370370370370372,0)" xlink:href="#x"/><use transform="matrix(0.05185185185185186,0,0,0.05185185185185186,14.466666666666669,0)" xlink:href="#z"/><use transform="matrix(0.05185185185185186,0,0,0.05185185185185186,24.837037037037042,0)" xlink:href="#C"/><use transform="matrix(0.05185185185185186,0,0,0.05185185185185186,35.207407407407416,0)" xlink:href="#G"/><use transform="matrix(0.05185185185185186,0,0,0.05185185185185186,45.57777777777779,0)" xlink:href="#D"/><use transform="matrix(0.05185185185185186,0,0,0.05185185185185186,55.948148148148164,0)" xlink:href="#x"/><use transform="matrix(0.05185185185185186,0,0,0.05185185185185186,60.044444444444466,0)" xlink:href="#z"/><use transform="matrix(0.05185185185185186,0,0,0.05185185185185186,70.41481481481483,0)" xlink:href="#H"/><use transform="matrix(0.05185185185185186,0,0,0.05185185185185186,75.60000000000002,0)" xlink:href="#Y"/><use transform="matrix(0.05185185185185186,0,0,0.05185185185185186,89.02962962962965,0)" xlink:href="#K"/><use transform="matrix(0.05185185185185186,0,0,0.05185185185185186,99.40000000000002,0)" xlink:href="#R"/><use transform="matrix(0.05185185185185186,0,0,0.05185185185185186,103.49629629629632,0)" xlink:href="#A"/><use transform="matrix(0.05185185185185186,0,0,0.05185185185185186,112.82962962962964,0)" xlink:href="#I"/><use transform="matrix(0.05185185185185186,0,0,0.05185185185185186,123.20000000000002,0)" xlink:href="#X"/><use transform="matrix(0.05185185185185186,0,0,0.05185185185185186,133.5703703703704,0)" xlink:href="#v"/><use transform="matrix(0.05185185185185186,0,0,0.05185185185185186,143.94074074074078,0)" xlink:href="#z"/><use transform="matrix(0.05185185185185186,0,0,0.05185185185185186,154.31111111111116,0)" xlink:href="#G"/><use transform="matrix(0.05185185185185186,0,0,0.05185185185185186,164.68148148148154,0)" xlink:href="#ad"/><use transform="matrix(0.05185185185185186,0,0,0.05185185185185186,174.01481481481488,0)" xlink:href="#v"/><use transform="matrix(0.05185185185185186,0,0,0.05185185185185186,184.38518518518526,0)" xlink:href="#O"/><use transform="matrix(0.05185185185185186,0,0,0.05185185185185186,190.55555555555563,0)" xlink:href="#P"/></g></defs></g></svg>